<svg xmlns="http://www.w3.org/2000/svg" xmlns:xlink="http://www.w3.org/1999/xlink" width="990" height="298.81"><rect width="990" height="298.81" rx="5" ry="5" class="a"/><svg y="0%" x="0%"><circle cx="20" cy="20" r="6" fill="#ff5f58"/><circle cx="40" cy="20" r="6" fill="#ffbd2e"/><circle cx="60" cy="20" r="6" fill="#18c132"/></svg><svg height="238.81" viewBox="0 0 95 23.881" width="950" x="15" xmlns="http://www.w3.org/2000/svg" xmlns:xlink="http://www.w3.org/1999/xlink" y="50"><style>@keyframes j{0%{transform:translateX(0)}9.9%{transform:translateX(-190px)}10%{transform:translateX(-285px)}10.1%{transform:translateX(-380px)}16.5%{transform:translateX(-475px)}18.4%{transform:translateX(-570px)}19.8%{transform:translateX(-665px)}21%{transform:translateX(-760px)}22.4%{transform:translateX(-855px)}24.2%{transform:translateX(-950px)}25.5%{transform:translateX(-1045px)}26.5%{transform:translateX(-1140px)}31.8%{transform:translateX(-1235px)}33.2%{transform:translateX(-1330px)}34.9%{transform:translateX(-1425px)}35.9%{transform:translateX(-1520px)}37.5%{transform:translateX(-1615px)}42.8%{transform:translateX(-1710px)}43.1%{transform:translateX(-1805px)}43.7%{transform:translateX(-1900px)}45.2%{transform:translateX(-1995px)}49.9%{transform:translateX(-2090px)}51.3%{transform:translateX(-2185px)}51.9%{transform:translateX(-2280px)}57.2%{transform:translateX(-2375px)}58.7%{transform:translateX(-2470px)}59.6%{transform:translateX(-2565px)}61.3%{transform:translateX(-2660px)}64.7%{transform:translateX(-2755px)}66.7%{transform:translateX(-2850px)}68.5%{transform:translateX(-2945px)}70.2%{transform:translateX(-3040px)}71.4%{transform:translateX(-3135px)}72.9%{transform:translateX(-3230px)}75.1%{transform:translateX(-3325px)}79%{transform:translateX(-3420px)}81.4%{transform:translateX(-3515px)}83.6%{transform:translateX(-3610px)}85.8%{transform:translateX(-3895px)}86%{transform:translateX(-3990px)}86.1%{transform:translateX(-4180px)}86.2%{transform:translateX(-4370px)}to{transform:translateX(-4465px)}}.a{fill:#282d35}.f,.g{fill:#a8cc8c;font-weight:700}.g{fill:#66c2cd}.h{fill:#b9c0cb}</style><g font-size="1.67" font-family="Monaco,Consolas,Menlo,'Bitstream Vera Sans Mono','Powerline Symbols',monospace"><defs><symbol id="1"><text y="1.67" class="f">➜</text><text x="3.006" y="1.67" class="g">try-deno</text></symbol><symbol id="2"><text y="1.67" class="f">➜</text><text x="3.006" y="1.67" class="g">try-deno</text><text x="12.024" y="1.67" class="h">deno</text></symbol><symbol id="3"><text y="1.67" class="f">➜</text><text x="3.006" y="1.67" class="g">try-deno</text><text x="12.024" y="1.67" class="h">deno</text><text x="17.034" y="1.67" class="h">--allow-read</text></symbol><symbol id="4"><text y="1.67" class="f">➜</text><text x="3.006" y="1.67" class="g">try-deno</text><text x="12.024" y="1.67" class="h">deno</text><text x="17.034" y="1.67" class="h">--allow-read</text><text x="30.06" y="1.67" class="h">cat.ts</text></symbol><symbol id="5"><text y="1.67" class="f">➜</text><text x="3.006" y="1.67" class="g">try-deno</text><text x="12.024" y="1.67" class="h">deno</text><text x="17.034" y="1.67" class="h">--allow-read</text><text x="30.06" y="1.67" class="h">cat.ts</text><text x="37.074" y="1.67" class="h">hello.txt</text></symbol><symbol id="6"><text y="1.67" class="h">hello</text><text x="6.012" y="1.67" class="h">world!</text></symbol><symbol id="a"><path fill="transparent" d="M0 0h95v11H0z"/></symbol></defs><path class="a" d="M0 0h95v23.881H0z"/><g style="animation-duration:12.545579s;animation-iteration-count:infinite;animation-name:j;animation-timing-function:steps(1,end)"><svg width="4560"><svg><use xlink:href="#a"/></svg><svg x="95"><use xlink:href="#a"/></svg><svg x="190"><use xlink:href="#a"/></svg><svg x="285"><use xlink:href="#a"/><use xlink:href="#1"/></svg><svg x="380"><use xlink:href="#a"/><use xlink:href="#1"/></svg><svg x="475"><use xlink:href="#a"/><text y="1.67" class="f">➜</text><text x="3.006" y="1.67" class="g">try-deno</text><text x="12.024" y="1.67" class="h">d</text></svg><svg x="570"><use xlink:href="#a"/><text y="1.67" class="f">➜</text><text x="3.006" y="1.67" class="g">try-deno</text><text x="12.024" y="1.67" class="h">de</text></svg><svg x="665"><use xlink:href="#a"/><text y="1.67" class="f">➜</text><text x="3.006" y="1.67" class="g">try-deno</text><text x="12.024" y="1.67" class="h">den</text></svg><svg x="760"><use xlink:href="#a"/><use xlink:href="#2"/></svg><svg x="855"><use xlink:href="#a"/><use xlink:href="#2"/></svg><svg x="950"><use xlink:href="#a"/><text y="1.67" class="f">➜</text><text x="3.006" y="1.67" class="g">try-deno</text><text x="12.024" y="1.67" class="h">deno</text><text x="17.034" y="1.67" class="h">-</text></svg><svg x="1045"><use xlink:href="#a"/><text y="1.67" class="f">➜</text><text x="3.006" y="1.67" class="g">try-deno</text><text x="12.024" y="1.67" class="h">deno</text><text x="17.034" y="1.67" class="h">--</text></svg><svg x="1140"><use xlink:href="#a"/><text y="1.67" class="f">➜</text><text x="3.006" y="1.67" class="g">try-deno</text><text x="12.024" y="1.67" class="h">deno</text><text x="17.034" y="1.67" class="h">--a</text></svg><svg x="1235"><use xlink:href="#a"/><text y="1.67" class="f">➜</text><text x="3.006" y="1.67" class="g">try-deno</text><text x="12.024" y="1.67" class="h">deno</text><text x="17.034" y="1.67" class="h">--al</text></svg><svg x="1330"><use xlink:href="#a"/><text y="1.67" class="f">➜</text><text x="3.006" y="1.67" class="g">try-deno</text><text x="12.024" y="1.67" class="h">deno</text><text x="17.034" y="1.67" class="h">--all</text></svg><svg x="1425"><use xlink:href="#a"/><text y="1.67" class="f">➜</text><text x="3.006" y="1.67" class="g">try-deno</text><text x="12.024" y="1.67" class="h">deno</text><text x="17.034" y="1.67" class="h">--allo</text></svg><svg x="1520"><use xlink:href="#a"/><text y="1.67" class="f">➜</text><text x="3.006" y="1.67" class="g">try-deno</text><text x="12.024" y="1.67" class="h">deno</text><text x="17.034" y="1.67" class="h">--allow</text></svg><svg x="1615"><use xlink:href="#a"/><text y="1.67" class="f">➜</text><text x="3.006" y="1.67" class="g">try-deno</text><text x="12.024" y="1.67" class="h">deno</text><text x="17.034" y="1.67" class="h">--allow-</text></svg><svg x="1710"><use xlink:href="#a"/><text y="1.67" class="f">➜</text><text x="3.006" y="1.67" class="g">try-deno</text><text x="12.024" y="1.67" class="h">deno</text><text x="17.034" y="1.67" class="h">--allow-r</text></svg><svg x="1805"><use xlink:href="#a"/><text y="1.67" class="f">➜</text><text x="3.006" y="1.67" class="g">try-deno</text><text x="12.024" y="1.67" class="h">deno</text><text x="17.034" y="1.67" class="h">--allow-re</text></svg><svg x="1900"><use xlink:href="#a"/><text y="1.67" class="f">➜</text><text x="3.006" y="1.67" class="g">try-deno</text><text x="12.024" y="1.67" class="h">deno</text><text x="17.034" y="1.67" class="h">--allow-rea</text></svg><svg x="1995"><use xlink:href="#a"/><use xlink:href="#3"/></svg><svg x="2090"><use xlink:href="#a"/><use xlink:href="#3"/></svg><svg x="2185"><use xlink:href="#a"/><text y="1.67" class="f">➜</text><text x="3.006" y="1.67" class="g">try-deno</text><text x="12.024" y="1.67" class="h">deno</text><text x="17.034" y="1.67" class="h">--allow-read</text><text x="30.06" y="1.67" class="h">c</text></svg><svg x="2280"><use xlink:href="#a"/><text y="1.67" class="f">➜</text><text x="3.006" y="1.67" class="g">try-deno</text><text x="12.024" y="1.67" class="h">deno</text><text x="17.034" y="1.67" class="h">--allow-read</text><text x="30.06" y="1.67" class="h">ca</text></svg><svg x="2375"><use xlink:href="#a"/><text y="1.67" class="f">➜</text><text x="3.006" y="1.67" class="g">try-deno</text><text x="12.024" y="1.67" class="h">deno</text><text x="17.034" y="1.67" class="h">--allow-read</text><text x="30.06" y="1.67" class="h">cat</text></svg><svg x="2470"><use xlink:href="#a"/><text y="1.67" class="f">➜</text><text x="3.006" y="1.67" class="g">try-deno</text><text x="12.024" y="1.67" class="h">deno</text><text x="17.034" y="1.67" class="h">--allow-read</text><text x="30.06" y="1.67" class="h">cat.</text></svg><svg x="2565"><use xlink:href="#a"/><text y="1.67" class="f">➜</text><text x="3.006" y="1.67" class="g">try-deno</text><text x="12.024" y="1.67" class="h">deno</text><text x="17.034" y="1.67" class="h">--allow-read</text><text x="30.06" y="1.67" class="h">cat.t</text></svg><svg x="2660"><use xlink:href="#a"/><use xlink:href="#4"/></svg><svg x="2755"><use xlink:href="#a"/><use xlink:href="#4"/></svg><svg x="2850"><use xlink:href="#a"/><text y="1.67" class="f">➜</text><text x="3.006" y="1.67" class="g">try-deno</text><text x="12.024" y="1.67" class="h">deno</text><text x="17.034" y="1.67" class="h">--allow-read</text><text x="30.06" y="1.67" class="h">cat.ts</text><text x="37.074" y="1.67" class="h">h</text></svg><svg x="2945"><use xlink:href="#a"/><text y="1.67" class="f">➜</text><text x="3.006" y="1.67" class="g">try-deno</text><text x="12.024" y="1.67" class="h">deno</text><text x="17.034" y="1.67" class="h">--allow-read</text><text x="30.06" y="1.67" class="h">cat.ts</text><text x="37.074" y="1.67" class="h">he</text></svg><svg x="3040"><use xlink:href="#a"/><text y="1.67" class="f">➜</text><text x="3.006" y="1.67" class="g">try-deno</text><text x="12.024" y="1.67" class="h">deno</text><text x="17.034" y="1.67" class="h">--allow-read</text><text x="30.06" y="1.67" class="h">cat.ts</text><text x="37.074" y="1.67" class="h">hel</text></svg><svg x="3135"><use xlink:href="#a"/><text y="1.67" class="f">➜</text><text x="3.006" y="1.67" class="g">try-deno</text><text x="12.024" y="1.67" class="h">deno</text><text x="17.034" y="1.67" class="h">--allow-read</text><text x="30.06" y="1.67" class="h">cat.ts</text><text x="37.074" y="1.67" class="h">hell</text></svg><svg x="3230"><use xlink:href="#a"/><text y="1.67" class="f">➜</text><text x="3.006" y="1.67" class="g">try-deno</text><text x="12.024" y="1.67" class="h">deno</text><text x="17.034" y="1.67" class="h">--allow-read</text><text x="30.06" y="1.67" class="h">cat.ts</text><text x="37.074" y="1.67" class="h">hello</text></svg><svg x="3325"><use xlink:href="#a"/><text y="1.67" class="f">➜</text><text x="3.006" y="1.67" class="g">try-deno</text><text x="12.024" y="1.67" class="h">deno</text><text x="17.034" y="1.67" class="h">--allow-read</text><text x="30.06" y="1.67" class="h">cat.ts</text><text x="37.074" y="1.67" class="h">hello.</text></svg><svg x="3420"><use xlink:href="#a"/><text y="1.67" class="f">➜</text><text x="3.006" y="1.67" class="g">try-deno</text><text x="12.024" y="1.67" class="h">deno</text><text x="17.034" y="1.67" class="h">--allow-read</text><text x="30.06" y="1.67" class="h">cat.ts</text><text x="37.074" y="1.67" class="h">hello.t</text></svg><svg x="3515"><use xlink:href="#a"/><text y="1.67" class="f">➜</text><text x="3.006" y="1.67" class="g">try-deno</text><text x="12.024" y="1.67" class="h">deno</text><text x="17.034" y="1.67" class="h">--allow-read</text><text x="30.06" y="1.67" class="h">cat.ts</text><text x="37.074" y="1.67" class="h">hello.tx</text></svg><svg x="3610"><use xlink:href="#a"/><use xlink:href="#5"/></svg><svg x="3705"><use xlink:href="#a"/><use xlink:href="#5"/></svg><svg x="3800"><use xlink:href="#a"/><use xlink:href="#5"/></svg><svg x="3895"><use xlink:href="#a"/><use xlink:href="#5"/></svg><svg x="3990"><use xlink:href="#a"/><use xlink:href="#5"/><use xlink:href="#6" y="2.171"/></svg><svg x="4085"><use xlink:href="#a"/><use xlink:href="#5"/><use xlink:href="#6" y="2.171"/></svg><svg x="4180"><use xlink:href="#a"/><use xlink:href="#5"/><use xlink:href="#6" y="2.171"/></svg><svg x="4275"><use xlink:href="#a"/><use xlink:href="#5"/><use xlink:href="#6" y="2.171"/><use xlink:href="#1" y="4.342"/></svg><svg x="4370"><use xlink:href="#a"/><use xlink:href="#5"/><use xlink:href="#6" y="2.171"/><use xlink:href="#1" y="4.342"/></svg><svg x="4465"><use xlink:href="#a"/><use xlink:href="#5"/><use xlink:href="#6" y="2.171"/><use xlink:href="#1" y="4.342"/></svg></svg></g></g></svg></svg>