<svg xmlns="http://www.w3.org/2000/svg" xmlns:xlink="http://www.w3.org/1999/xlink" width="990" height="298.81"><rect width="990" height="298.81" rx="5" ry="5" class="a"/><svg y="0%" x="0%"><circle cx="20" cy="20" r="6" fill="#ff5f58"/><circle cx="40" cy="20" r="6" fill="#ffbd2e"/><circle cx="60" cy="20" r="6" fill="#18c132"/></svg><svg height="238.81" viewBox="0 0 95 23.881" width="950" x="15" xmlns="http://www.w3.org/2000/svg" xmlns:xlink="http://www.w3.org/1999/xlink" y="50"><style>@keyframes n{0%{transform:translateX(0)}12.8%{transform:translateX(-190px)}13%{transform:translateX(-380px)}24.2%{transform:translateX(-475px)}26.1%{transform:translateX(-570px)}26.9%{transform:translateX(-665px)}28.4%{transform:translateX(-760px)}31.7%{transform:translateX(-855px)}33.2%{transform:translateX(-950px)}33.9%{transform:translateX(-1045px)}36.2%{transform:translateX(-1140px)}38.3%{transform:translateX(-1235px)}39.7%{transform:translateX(-1330px)}41.7%{transform:translateX(-1425px)}43.5%{transform:translateX(-1520px)}47.2%{transform:translateX(-1615px)}48.3%{transform:translateX(-1710px)}49.6%{transform:translateX(-1805px)}51%{transform:translateX(-1900px)}52.7%{transform:translateX(-1995px)}54.7%{transform:translateX(-2090px)}55.9%{transform:translateX(-2185px)}58.5%{transform:translateX(-2280px)}61.2%{transform:translateX(-2375px)}63.5%{transform:translateX(-2660px)}64.3%{transform:translateX(-2755px)}83.9%{transform:translateX(-2850px)}88.3%{transform:translateX(-2945px)}88.5%{transform:translateX(-3230px)}88.7%{transform:translateX(-3420px)}to{transform:translateX(-3515px)}}.a{fill:#282d35}.f,.g{fill:#a8cc8c;font-weight:700}.g{fill:#66c2cd}.h,.i{fill:#b9c0cb}.i{font-weight:700}.j{fill:#66c2cd}.k{fill:#dbab79}</style><g font-size="1.67" font-family="Monaco,Consolas,Menlo,'Bitstream Vera Sans Mono','Powerline Symbols',monospace"><defs><symbol id="1"><text y="1.67" class="f">➜</text><text x="3.006" y="1.67" class="g">try-deno</text></symbol><symbol id="2"><text y="1.67" class="f">➜</text><text x="3.006" y="1.67" class="g">try-deno</text><text x="12.024" y="1.67" class="h">deno</text></symbol><symbol id="3"><text y="1.67" class="f">➜</text><text x="3.006" y="1.67" class="g">try-deno</text><text x="12.024" y="1.67" class="h">deno</text><text x="17.034" y="1.67" class="h">cat.ts</text></symbol><symbol id="4"><text y="1.67" class="f">➜</text><text x="3.006" y="1.67" class="g">try-deno</text><text x="12.024" y="1.67" class="h">deno</text><text x="17.034" y="1.67" class="h">cat.ts</text><text x="24.048" y="1.67" class="h">hello.txt</text></symbol><symbol id="5"><text y="1.67" class="i">⚠️</text><text x="4.008" y="1.67" class="i">Deno</text><text x="9.018" y="1.67" class="i">requests</text><text x="18.036" y="1.67" class="i">read</text><text x="23.046" y="1.67" class="i">access</text><text x="30.06" y="1.67" class="i">to</text><text x="33.066" y="1.67" class="i">&quot;hello.txt&quot;.</text><text x="46.092" y="1.67" class="i">Grant?</text><text x="53.106" y="1.67" class="i">[a/y/n/d</text><text x="62.124" y="1.67" class="i">(a</text><text x="65.13" y="1.67" class="i">=</text><text x="67.134" y="1.67" class="i">allow</text><text x="73.146" y="1.67" class="i">always,</text><text x="81.162" y="1.67" class="i">y</text><text x="83.166" y="1.67" class="i">=</text><text x="85.17" y="1.67" class="i">allow</text><text x="91.182" y="1.67" class="i">once</text></symbol><symbol id="6"><text y="1.67" class="i">,</text><text x="2.004" y="1.67" class="i">n</text><text x="4.008" y="1.67" class="i">=</text><text x="6.012" y="1.67" class="i">deny</text><text x="11.022" y="1.67" class="i">once,</text><text x="17.034" y="1.67" class="i">d</text><text x="19.038" y="1.67" class="i">=</text><text x="21.042" y="1.67" class="i">deny</text><text x="26.052" y="1.67" class="i">always)]</text><text x="35.07" y="1.67" class="h">n</text></symbol><symbol id="7"><text y="1.67" class="i">Uncaught</text><text x="9.018" y="1.67" class="i">PermissionDenied:</text><text x="27.054" y="1.67" class="i">permission</text><text x="38.076" y="1.67" class="i">denied</text></symbol><symbol id="8"><text x="4.008" y="1.67" class="h">at</text><text x="7.014" y="1.67" class="i">DenoError</text><text x="17.034" y="1.67" class="h">(</text><text x="18.036" y="1.67" class="j">js/errors.ts</text><text x="30.06" y="1.67" class="h">:</text><text x="31.062" y="1.67" class="k">22</text><text x="33.066" y="1.67" class="h">:</text><text x="34.068" y="1.67" class="k">5</text><text x="35.07" y="1.67" class="h">)</text></symbol><symbol id="9"><text x="4.008" y="1.67" class="h">at</text><text x="7.014" y="1.67" class="i">maybeError</text><text x="18.036" y="1.67" class="h">(</text><text x="19.038" y="1.67" class="j">js/errors.ts</text><text x="31.062" y="1.67" class="h">:</text><text x="32.064" y="1.67" class="k">33</text><text x="34.068" y="1.67" class="h">:</text><text x="35.07" y="1.67" class="k">12</text><text x="37.074" y="1.67" class="h">)</text></symbol><symbol id="10"><text x="4.008" y="1.67" class="h">at</text><text x="7.014" y="1.67" class="i">handleAsyncMsgFromRust</text><text x="30.06" y="1.67" class="h">(</text><text x="31.062" y="1.67" class="j">js/dispatch.ts</text><text x="45.09" y="1.67" class="h">:</text><text x="46.092" y="1.67" class="k">18</text><text x="48.096" y="1.67" class="h">:</text><text x="49.098" y="1.67" class="k">15</text><text x="51.102" y="1.67" class="h">)</text></symbol><symbol id="11"><text x="4.008" y="1.67" class="h">at</text><text x="7.014" y="1.67" class="i">handleAsyncMsgFromRust</text><text x="30.06" y="1.67" class="h">(</text><text x="31.062" y="1.67" class="j">shared_queue.js</text><text x="46.092" y="1.67" class="h">:</text><text x="47.094" y="1.67" class="k">157</text><text x="50.1" y="1.67" class="h">:</text><text x="51.102" y="1.67" class="k">9</text><text x="52.104" y="1.67" class="h">)</text></symbol><symbol id="12"><text y="1.67" fill="#e88388" font-weight="700">➜</text><text x="3.006" y="1.67" class="g">try-deno</text></symbol><symbol id="a"><path fill="transparent" d="M0 0h95v11H0z"/></symbol></defs><path class="a" d="M0 0h95v23.881H0z"/><g style="animation-duration:11.18918s;animation-iteration-count:infinite;animation-name:n;animation-timing-function:steps(1,end)"><svg width="3610"><svg><use xlink:href="#a"/></svg><svg x="95"><use xlink:href="#a"/></svg><svg x="190"><use xlink:href="#a"/></svg><svg x="285"><use xlink:href="#a"/><use xlink:href="#1"/></svg><svg x="380"><use xlink:href="#a"/><use xlink:href="#1"/></svg><svg x="475"><use xlink:href="#a"/><text y="1.67" class="f">➜</text><text x="3.006" y="1.67" class="g">try-deno</text><text x="12.024" y="1.67" class="h">d</text></svg><svg x="570"><use xlink:href="#a"/><text y="1.67" class="f">➜</text><text x="3.006" y="1.67" class="g">try-deno</text><text x="12.024" y="1.67" class="h">de</text></svg><svg x="665"><use xlink:href="#a"/><text y="1.67" class="f">➜</text><text x="3.006" y="1.67" class="g">try-deno</text><text x="12.024" y="1.67" class="h">den</text></svg><svg x="760"><use xlink:href="#a"/><use xlink:href="#2"/></svg><svg x="855"><use xlink:href="#a"/><use xlink:href="#2"/></svg><svg x="950"><use xlink:href="#a"/><text y="1.67" class="f">➜</text><text x="3.006" y="1.67" class="g">try-deno</text><text x="12.024" y="1.67" class="h">deno</text><text x="17.034" y="1.67" class="h">c</text></svg><svg x="1045"><use xlink:href="#a"/><text y="1.67" class="f">➜</text><text x="3.006" y="1.67" class="g">try-deno</text><text x="12.024" y="1.67" class="h">deno</text><text x="17.034" y="1.67" class="h">ca</text></svg><svg x="1140"><use xlink:href="#a"/><text y="1.67" class="f">➜</text><text x="3.006" y="1.67" class="g">try-deno</text><text x="12.024" y="1.67" class="h">deno</text><text x="17.034" y="1.67" class="h">cat</text></svg><svg x="1235"><use xlink:href="#a"/><text y="1.67" class="f">➜</text><text x="3.006" y="1.67" class="g">try-deno</text><text x="12.024" y="1.67" class="h">deno</text><text x="17.034" y="1.67" class="h">cat.</text></svg><svg x="1330"><use xlink:href="#a"/><text y="1.67" class="f">➜</text><text x="3.006" y="1.67" class="g">try-deno</text><text x="12.024" y="1.67" class="h">deno</text><text x="17.034" y="1.67" class="h">cat.t</text></svg><svg x="1425"><use xlink:href="#a"/><use xlink:href="#3"/></svg><svg x="1520"><use xlink:href="#a"/><use xlink:href="#3"/></svg><svg x="1615"><use xlink:href="#a"/><text y="1.67" class="f">➜</text><text x="3.006" y="1.67" class="g">try-deno</text><text x="12.024" y="1.67" class="h">deno</text><text x="17.034" y="1.67" class="h">cat.ts</text><text x="24.048" y="1.67" class="h">h</text></svg><svg x="1710"><use xlink:href="#a"/><text y="1.67" class="f">➜</text><text x="3.006" y="1.67" class="g">try-deno</text><text x="12.024" y="1.67" class="h">deno</text><text x="17.034" y="1.67" class="h">cat.ts</text><text x="24.048" y="1.67" class="h">he</text></svg><svg x="1805"><use xlink:href="#a"/><text y="1.67" class="f">➜</text><text x="3.006" y="1.67" class="g">try-deno</text><text x="12.024" y="1.67" class="h">deno</text><text x="17.034" y="1.67" class="h">cat.ts</text><text x="24.048" y="1.67" class="h">hel</text></svg><svg x="1900"><use xlink:href="#a"/><text y="1.67" class="f">➜</text><text x="3.006" y="1.67" class="g">try-deno</text><text x="12.024" y="1.67" class="h">deno</text><text x="17.034" y="1.67" class="h">cat.ts</text><text x="24.048" y="1.67" class="h">hell</text></svg><svg x="1995"><use xlink:href="#a"/><text y="1.67" class="f">➜</text><text x="3.006" y="1.67" class="g">try-deno</text><text x="12.024" y="1.67" class="h">deno</text><text x="17.034" y="1.67" class="h">cat.ts</text><text x="24.048" y="1.67" class="h">hello</text></svg><svg x="2090"><use xlink:href="#a"/><text y="1.67" class="f">➜</text><text x="3.006" y="1.67" class="g">try-deno</text><text x="12.024" y="1.67" class="h">deno</text><text x="17.034" y="1.67" class="h">cat.ts</text><text x="24.048" y="1.67" class="h">hello.</text></svg><svg x="2185"><use xlink:href="#a"/><text y="1.67" class="f">➜</text><text x="3.006" y="1.67" class="g">try-deno</text><text x="12.024" y="1.67" class="h">deno</text><text x="17.034" y="1.67" class="h">cat.ts</text><text x="24.048" y="1.67" class="h">hello.t</text></svg><svg x="2280"><use xlink:href="#a"/><text y="1.67" class="f">➜</text><text x="3.006" y="1.67" class="g">try-deno</text><text x="12.024" y="1.67" class="h">deno</text><text x="17.034" y="1.67" class="h">cat.ts</text><text x="24.048" y="1.67" class="h">hello.tx</text></svg><svg x="2375"><use xlink:href="#a"/><use xlink:href="#4"/></svg><svg x="2470"><use xlink:href="#a"/><use xlink:href="#4"/></svg><svg x="2565"><use xlink:href="#a"/><use xlink:href="#4"/></svg><svg x="2660"><use xlink:href="#a"/><use xlink:href="#4"/></svg><svg x="2755"><use xlink:href="#a"/><use xlink:href="#4"/><use xlink:href="#5" y="2.171"/><text y="6.012" class="i">,</text><text x="2.004" y="6.012" class="i">n</text><text x="4.008" y="6.012" class="i">=</text><text x="6.012" y="6.012" class="i">deny</text><text x="11.022" y="6.012" class="i">once,</text><text x="17.034" y="6.012" class="i">d</text><text x="19.038" y="6.012" class="i">=</text><text x="21.042" y="6.012" class="i">deny</text><text x="26.052" y="6.012" class="i">always)]</text></svg><svg x="2850"><use xlink:href="#a"/><use xlink:href="#4"/><use xlink:href="#5" y="2.171"/><use xlink:href="#6" y="4.342"/></svg><svg x="2945"><use xlink:href="#a"/><use xlink:href="#4"/><use xlink:href="#5" y="2.171"/><use xlink:href="#6" y="4.342"/></svg><svg x="3040"><use xlink:href="#a"/><use xlink:href="#4"/><use xlink:href="#5" y="2.171"/><use xlink:href="#6" y="4.342"/><use xlink:href="#7" y="6.513"/><use xlink:href="#8" y="8.684"/><use xlink:href="#9" y="10.855"/><use xlink:href="#10" y="13.026"/><use xlink:href="#11" y="15.197"/></svg><svg x="3135"><use xlink:href="#a"/><use xlink:href="#4"/><use xlink:href="#5" y="2.171"/><use xlink:href="#6" y="4.342"/><use xlink:href="#7" y="6.513"/><use xlink:href="#8" y="8.684"/><use xlink:href="#9" y="10.855"/><use xlink:href="#10" y="13.026"/><use xlink:href="#11" y="15.197"/></svg><svg x="3230"><use xlink:href="#a"/><use xlink:href="#4"/><use xlink:href="#5" y="2.171"/><use xlink:href="#6" y="4.342"/><use xlink:href="#7" y="6.513"/><use xlink:href="#8" y="8.684"/><use xlink:href="#9" y="10.855"/><use xlink:href="#10" y="13.026"/><use xlink:href="#11" y="15.197"/></svg><svg x="3325"><use xlink:href="#a"/><use xlink:href="#4"/><use xlink:href="#5" y="2.171"/><use xlink:href="#6" y="4.342"/><use xlink:href="#7" y="6.513"/><use xlink:href="#8" y="8.684"/><use xlink:href="#9" y="10.855"/><use xlink:href="#10" y="13.026"/><use xlink:href="#11" y="15.197"/><use xlink:href="#12" y="17.368"/></svg><svg x="3420"><use xlink:href="#a"/><use xlink:href="#4"/><use xlink:href="#5" y="2.171"/><use xlink:href="#6" y="4.342"/><use xlink:href="#7" y="6.513"/><use xlink:href="#8" y="8.684"/><use xlink:href="#9" y="10.855"/><use xlink:href="#10" y="13.026"/><use xlink:href="#11" y="15.197"/><use xlink:href="#12" y="17.368"/></svg><svg x="3515"><use xlink:href="#a"/><use xlink:href="#4"/><use xlink:href="#5" y="2.171"/><use xlink:href="#6" y="4.342"/><use xlink:href="#7" y="6.513"/><use xlink:href="#8" y="8.684"/><use xlink:href="#9" y="10.855"/><use xlink:href="#10" y="13.026"/><use xlink:href="#11" y="15.197"/><use xlink:href="#12" y="17.368"/></svg></svg></g></g></svg></svg>